PathFileType  4	(X/Y/Z) C:\Users\antoi\Documents\MyRepositories\mobilecap\ResultsAnalysis
DataRate	CameraRate	NumFrames	NumMarkers	Units	OrigDataRate	OrigDataStartFrame	OrigNumFrames
100.0	100.0	7	51	mm	100.0	147	234
Frame#	Time	r_knee			r_shank_antsup			r_ankle			r_calc			r_5meta			r_toe			L_knee			L_shank_antsup			L_ankle			L_calc			L_5meta			L_toe			r_sh2			r_sh3			r_sh4			L_sh2			L_sh3			r_thigh1			r_thigh2			r_thigh3			r_thigh4			r_thigh5			L_thigh1			L_thigh2			L_thigh3			L_thigh4			r.ASIS			r.PSIS			L.ASIS			L.PSIS			C7			R_Shoulder			L_Shoulder			R_Sternum			L_Sternum			R_humerus			R_elbow_med			R_elbow_lat			R_forearm			R_wrist_radius			R_wrist_ulna			L_humerus			L_elbow_med			L_elbow_lat			L_forearm			L_wrist_radius			L_wrist_ulna			R_HJC			L_HJC			R_HJC_reg			L_HJC_reg			
		X1	Y1	Z1	X2	Y2	Z2	X3	Y3	Z3	X4	Y4	Z4	X5	Y5	Z5	X6	Y6	Z6	X7	Y7	Z7	X8	Y8	Z8	X9	Y9	Z9	X10	Y10	Z10	X11	Y11	Z11	X12	Y12	Z12	X13	Y13	Z13	X14	Y14	Z14	X15	Y15	Z15	X16	Y16	Z16	X17	Y17	Z17	X18	Y18	Z18	X19	Y19	Z19	X20	Y20	Z20	X21	Y21	Z21	X22	Y22	Z22	X23	Y23	Z23	X24	Y24	Z24	X25	Y25	Z25	X26	Y26	Z26	X27	Y27	Z27	X28	Y28	Z28	X29	Y29	Z29	X30	Y30	Z30	X31	Y31	Z31	X32	Y32	Z32	X33	Y33	Z33	X34	Y34	Z34	X35	Y35	Z35	X36	Y36	Z36	X37	Y37	Z37	X38	Y38	Z38	X39	Y39	Z39	X40	Y40	Z40	X41	Y41	Z41	X42	Y42	Z42	X43	Y43	Z43	X44	Y44	Z44	X45	Y45	Z45	X46	Y46	Z46	X47	Y47	Z47	X48	Y48	Z48	X49	Y49	Z49	X50	Y50	Z50	X51	Y51	Z51	

147	1.46000000	-53.11685	427.63315	-374.36163	-19.84013	348.68496	-374.63917	-252.88559	102.95285	-389.82824	-331.61717	70.29276	-433.68651	-176.96699	46.71267	-330.14090	-115.24518	65.87737	-375.78820	-44.44799	417.99101	-847.65642	-21.41949	326.20523	-858.78383	-240.58770	105.50252	-847.57808	-323.24335	69.28263	-803.15055	-155.91803	41.39071	-895.61968	-109.73219	59.68859	-841.62216	-101.50583	265.48216	-360.67303	-83.15100	400.04155	-361.58679	-157.13051	314.98830	-361.86550	-93.13075	379.57568	-861.74064	-158.52736	275.54397	-871.61569	-312.16885	589.22289	-438.38049	-210.95524	545.31224	-419.30432	-252.88051	445.34415	-396.14043	-361.28580	489.84232	-416.58631	-218.58573	488.13633	-382.90081	-282.91406	543.28176	-863.37105	-151.18280	505.74167	-856.27923	-316.54664	435.57735	-830.29026	-178.36041	401.56416	-835.81006	-305.93843	569.41082	-514.13909	-459.47247	680.91380	-586.55461	-311.69215	569.00404	-759.14784	-465.59615	690.91179	-682.79092	-133.63879	964.15279	-651.90765	-26.34475	894.70963	-514.28232	-54.04784	901.66199	-806.74530	-41.22103	837.80035	-632.03229	-43.94563	836.62316	-675.58534	6.19341	827.46704	-411.82189	46.75401	614.08974	-362.72090	67.28643	669.43656	-308.62603	161.56145	725.29526	-395.13517	241.46603	765.68564	-477.64649	271.38441	745.53579	-475.16957	-54.59284	829.98776	-898.15342	-86.27569	600.65196	-960.80534	-64.20836	662.82005	-1015.39267	21.26155	680.27624	-946.83924	141.36725	677.67560	-867.24379	159.64882	665.66594	-895.07187	-407.32698	527.54537	-534.78807	-411.10157	532.74363	-741.16149	-397.50540	522.71368	-547.00342	-407.72228	539.39536	-707.56653	
148	1.47000000	-52.16217	426.23849	-376.22120	-19.06344	347.85896	-375.62570	-252.93960	102.69501	-389.81541	-331.77055	70.08590	-433.48720	-177.02858	46.61228	-330.02364	-115.38736	65.88889	-375.65631	-42.61442	417.58719	-845.66495	-20.41361	325.55232	-857.12517	-240.57915	105.54069	-847.37212	-323.29026	69.18620	-803.19450	-155.93550	41.41765	-895.58264	-109.84002	59.70048	-841.51301	-101.10166	264.93953	-361.50441	-81.54169	399.02875	-363.01458	-156.61942	314.63940	-362.59415	-91.92724	379.23121	-859.79682	-157.82833	275.32005	-869.99208	-308.38004	592.59239	-439.10250	-207.88456	546.85565	-420.61946	-251.23809	447.65432	-396.35805	-358.97024	494.07192	-416.15213	-215.99728	490.21317	-383.04384	-280.14868	544.30319	-862.93254	-148.64030	506.04011	-854.74292	-314.83662	437.05257	-829.52954	-176.73365	402.13473	-834.65907	-305.06160	572.52284	-513.32108	-458.01955	683.49371	-587.28734	-309.55693	570.70585	-758.59684	-463.81540	692.92695	-683.67096	-131.48081	966.11357	-651.93283	-23.18644	897.93039	-515.39212	-50.67056	904.54935	-805.68394	-38.68240	839.94227	-631.98074	-41.28310	838.69332	-675.16027	11.87504	832.81109	-413.43997	58.88414	620.71490	-363.73805	78.76872	676.85727	-310.51817	171.06295	734.61761	-397.07726	249.91689	776.64795	-480.05188	280.04393	756.95914	-477.72069	-47.48341	834.74233	-897.56077	-68.50199	604.64962	-962.73590	-47.59849	668.19499	-1016.06241	36.20448	688.16969	-946.37777	155.02956	689.29644	-865.39830	174.18582	678.50415	-893.45736	-406.26624	530.48948	-534.37753	-408.99803	534.47777	-740.78990	-396.33439	525.60926	-546.27157	-406.00661	541.35223	-707.12746	
149	1.48000000	-51.06036	425.40903	-378.12173	-18.17499	347.20012	-377.00516	-252.94941	102.68786	-389.94553	-331.83698	70.03764	-433.37533	-177.02355	46.60955	-330.06041	-115.40073	65.91263	-375.65545	-40.92111	417.18141	-843.14748	-19.41430	324.92173	-854.94212	-240.47900	105.67138	-847.07312	-323.30393	69.17188	-803.15374	-155.91422	41.45872	-895.47106	-109.85785	59.69546	-841.31451	-100.64045	264.76189	-362.56012	-80.19016	398.74294	-364.88014	-155.99132	314.55792	-363.58190	-90.82537	378.91864	-857.51339	-157.17212	275.16275	-868.07865	-304.99313	595.38557	-439.85256	-204.90341	548.46550	-421.58245	-249.44858	449.48403	-397.51428	-356.70901	497.47304	-416.03369	-213.60125	491.78102	-383.57755	-277.14151	546.12582	-862.17277	-145.93031	506.91236	-853.01032	-312.97537	439.36895	-828.25149	-175.12151	403.35727	-833.31901	-303.61652	577.23469	-512.41642	-456.11147	687.29128	-588.23186	-307.09867	573.16797	-757.98188	-461.69769	695.83261	-684.70037	-129.79113	969.32129	-652.20331	-20.37061	902.74194	-516.79174	-47.53085	908.77362	-804.71676	-36.18192	843.74035	-631.84081	-38.72070	842.28237	-674.49624	17.16236	839.95413	-415.03322	70.29514	629.59125	-365.46402	89.47685	686.20174	-312.23091	180.05730	745.96684	-398.90244	257.88160	789.84785	-481.89936	288.17753	770.49653	-480.18240	-40.67217	841.07132	-896.80971	-51.22502	610.68194	-964.39883	-31.33556	675.34823	-1016.13911	51.03638	698.01756	-945.72476	168.30307	703.08570	-863.69714	188.32152	693.32523	-891.59480	-404.62000	534.88665	-533.66286	-406.51539	536.95630	-740.11122	-394.57992	529.90172	-545.19385	-403.91490	544.17468	-706.40638	
150	1.49000000	-49.72826	425.21461	-379.69235	-17.40598	346.72412	-378.50637	-252.97162	102.84975	-390.13562	-331.79445	70.10660	-433.38718	-176.97397	46.69393	-330.16467	-115.33184	65.96377	-375.76073	-39.36599	416.96258	-840.70335	-18.64959	324.62884	-852.84750	-240.31430	105.88810	-846.87150	-323.25739	69.31355	-803.08730	-155.85907	41.50396	-895.31709	-109.80113	59.68784	-841.09102	-100.28931	264.99172	-363.54106	-79.26899	398.85921	-366.76081	-155.42169	314.84593	-365.02361	-89.89684	378.91414	-855.31668	-156.56015	275.55830	-866.63174	-302.11805	597.88492	-440.34951	-202.26065	550.21372	-422.01462	-247.77031	451.46632	-398.84247	-354.71702	500.47989	-416.38504	-211.57333	493.16332	-384.37216	-273.96614	548.83255	-861.27907	-143.24983	508.17168	-851.53110	-311.07487	442.26632	-826.36485	-173.66159	405.04372	-831.61387	-301.25456	582.95931	-512.18482	-453.65085	692.08405	-589.12252	-304.26569	577.37946	-757.89054	-459.24510	700.00694	-685.54802	-128.56895	973.68677	-652.69072	-17.93685	909.05127	-518.28288	-44.52837	914.29190	-803.75395	-33.62105	849.06468	-631.70227	-36.22844	847.44181	-673.88484	22.05167	848.70164	-416.61872	81.02707	640.51039	-367.35271	99.39035	697.45231	-313.61792	188.53154	759.25745	-400.57557	265.06325	805.12012	-483.35329	295.69424	786.11622	-482.32112	-34.13687	848.79777	-895.85055	-34.14300	618.89564	-964.83040	-15.77693	684.55803	-1016.17316	65.30419	709.80725	-944.77067	180.86607	719.00110	-862.01945	201.67575	709.98833	-889.51073	-402.03599	540.19514	-533.44261	-403.56759	540.97299	-739.90714	-391.89237	535.20241	-544.70553	-401.25690	548.46506	-706.11083	
151	1.50000000	-48.47162	425.16867	-381.14262	-16.91312	346.38822	-379.79403	-253.00825	102.95359	-390.24279	-331.75527	70.12105	-433.42995	-176.94666	46.75056	-330.21235	-115.30201	66.02498	-375.83396	-38.00991	417.11382	-838.79038	-18.18556	324.68816	-851.17508	-240.15331	106.11665	-846.84320	-323.16696	69.53794	-803.06020	-155.80273	41.54024	-895.21378	-109.74642	59.68719	-840.94249	-100.17646	265.31076	-364.35253	-78.60139	398.99544	-368.45436	-155.17280	315.31959	-366.51466	-89.23571	379.26156	-853.29139	-156.06769	276.43238	-865.64944	-299.45020	600.62378	-440.55771	-200.04526	551.99031	-422.20616	-246.42192	453.62778	-399.90997	-353.10733	503.79257	-417.01071	-209.94218	494.75173	-385.09331	-270.75947	552.21998	-860.44426	-140.68709	509.75225	-850.43824	-309.37038	445.84073	-824.80300	-172.38396	407.06114	-829.92848	-297.88662	589.37568	-512.78087	-450.64695	697.65754	-589.76765	-301.18833	583.46304	-758.59276	-456.55654	705.41274	-686.13707	-127.69601	979.15739	-653.36490	-15.89123	916.76565	-519.77151	-41.61421	921.10375	-802.72364	-31.01185	855.83412	-631.81675	-33.84417	854.08762	-673.53484	26.48822	859.02497	-418.13254	91.02123	653.28587	-368.74046	108.66191	710.56381	-314.70328	196.42052	774.44509	-401.98816	271.47075	822.43471	-484.71677	302.43781	803.75656	-484.20979	-27.83892	857.73256	-894.79178	-17.08867	629.23474	-963.77895	-1.13479	695.73474	-1016.39157	78.57039	723.41042	-943.56538	192.43329	736.87779	-860.13381	213.96084	728.53845	-887.20149	-398.43582	546.11179	-533.90982	-400.25739	546.59567	-740.37257	-388.21954	541.20673	-544.98739	-398.12175	554.20178	-706.45986	
152	1.51000000	-47.62459	425.13285	-382.40857	-16.69748	346.33375	-380.59094	-253.05780	102.96438	-390.29679	-331.75745	70.06044	-433.45722	-176.96001	46.73948	-330.21433	-115.32802	66.06526	-375.81604	-36.98054	417.54128	-837.38337	-17.92527	324.99274	-850.01503	-240.02714	106.29943	-846.91021	-323.05395	69.73766	-803.08412	-155.76082	41.54809	-895.20272	-109.70884	59.68743	-840.92976	-100.22515	265.47770	-365.00221	-78.21165	399.17239	-369.86267	-155.22462	315.54784	-367.59831	-88.84751	379.82744	-851.62655	-155.86178	277.26293	-864.66386	-296.84217	603.82950	-440.59323	-198.10118	553.98089	-422.47540	-245.43813	455.98065	-400.68898	-351.73601	507.49757	-417.84699	-208.64982	496.81360	-385.70768	-267.69520	556.02323	-859.74001	-138.29907	511.66752	-849.50783	-307.92948	450.25714	-824.22882	-171.38099	409.48995	-828.83431	-293.88846	596.60240	-513.56949	-447.30907	703.89256	-590.18817	-297.66507	590.90311	-759.56155	-453.62417	711.68514	-686.62279	-127.08101	985.64161	-654.19055	-14.27169	925.67677	-521.26706	-38.83651	929.14034	-801.61211	-28.55795	863.91526	-632.13952	-31.52736	862.05725	-673.50005	30.45223	870.87016	-419.52669	100.58992	667.75162	-369.54175	117.39336	725.47785	-315.37630	203.59331	791.48839	-403.10556	277.22593	841.76600	-486.08907	308.16916	823.28183	-485.92081	-21.79025	867.86931	-893.87282	-0.72479	641.27916	-963.15940	12.50050	708.56837	-1016.56133	90.62874	738.78205	-942.36572	202.70642	756.51812	-857.91422	224.96226	749.05906	-884.67080	-394.12934	552.67679	-534.61412	-396.40892	553.33017	-741.07164	-383.85894	547.89872	-545.51517	-394.43763	560.95260	-707.06098	
153	1.52000000	-47.20655	425.22404	-383.26609	-16.66136	346.52066	-380.99089	-253.07198	103.00721	-390.32150	-331.75826	70.01923	-433.42223	-176.97519	46.70974	-330.19886	-115.35908	66.06300	-375.75111	-36.33760	418.13861	-836.48354	-17.88499	325.59200	-849.64524	-239.92632	106.45053	-847.01833	-322.93692	69.89360	-803.13950	-155.73336	41.52030	-895.24030	-109.65127	59.69748	-841.06744	-100.31554	265.65347	-365.31119	-78.09273	399.33602	-370.83241	-155.27765	315.60289	-368.28238	-88.71115	380.49271	-850.79540	-155.94142	277.74731	-863.78393	-294.22128	607.58971	-440.39951	-196.14340	556.61354	-422.65596	-244.61061	458.92572	-401.15697	-350.31049	511.58113	-418.64571	-207.50808	499.48690	-386.16248	-264.85389	560.19996	-859.16603	-136.08340	513.66284	-848.23663	-306.64928	455.29397	-824.12916	-170.81661	412.31972	-828.13894	-289.80543	604.47160	-514.30578	-443.99898	710.66073	-590.49955	-293.57837	599.50976	-760.23565	-450.51848	718.66385	-686.92357	-126.74235	992.97954	-655.07303	-13.02896	935.67836	-522.74203	-36.32936	938.38435	-800.59554	-26.34103	873.14680	-632.43866	-29.15251	871.17341	-673.67046	33.97009	884.00499	-420.85035	110.12678	683.83734	-369.71382	125.63183	742.19878	-315.58994	209.91325	810.36251	-403.93619	281.93576	862.77796	-487.59462	312.70434	844.57325	-487.43169	-16.08923	879.55653	-893.06056	14.37438	654.82655	-964.08619	25.14274	722.93614	-1016.63856	101.39146	756.04416	-941.49972	211.47475	777.86894	-855.54125	234.47842	771.51992	-882.09766	-389.61670	559.74255	-535.41664	-391.97467	561.01250	-741.86967	-379.25065	555.21939	-546.24474	-390.16630	568.61890	-707.68846	
